<?xml version="1.0" encoding="UTF-8" standalone="no"?>
<!-- Created with Inkscape (http://www.inkscape.org/) -->

<svg
   width="76"
   height="76"
   viewBox="0 0 76 76"
   version="1.1"
   id="svg5"
   xml:space="preserve"
   xmlns:inkscape="http://www.inkscape.org/namespaces/inkscape"
   xmlns:sodipodi="http://sodipodi.sourceforge.net/DTD/sodipodi-0.dtd"
   xmlns="http://www.w3.org/2000/svg"
   xmlns:svg="http://www.w3.org/2000/svg"><style
     id="style532">
#path247, #rect356, #rect356-3, #rect356-3-5, #rect356-3-6, #rect356-3-7 { 
    fill:#dfdfdf;
}
</style><sodipodi:namedview
     id="namedview7"
     pagecolor="#ffffff"
     bordercolor="#000000"
     borderopacity="0.25"
     inkscape:showpageshadow="2"
     inkscape:pageopacity="0.0"
     inkscape:pagecheckerboard="0"
     inkscape:deskcolor="#d1d1d1"
     inkscape:document-units="px"
     showgrid="false" /><defs
     id="defs2" /><path
     d="m 37.54748,9.6423996 c 0,0.5999664 0,1.1999334 0,1.7999004 0,0.15547 0.0302,0.343585 0,0.494602 -0.01139,0.05696 -0.04689,0.107821 -0.05511,0.165328 -0.007,0.04926 0.02569,0.307959 0,0.384384 -0.0083,0.02463 -0.04343,0.0319 -0.05511,0.05511 -0.0713,0.141703 0.07237,0.392774 0,0.533847 -0.104374,0.20345 -0.05442,0.52028 -0.05442,0.761869 0,0.236261 0.06216,0.914322 0,1.100802 -0.0082,0.02465 -0.04689,0.03046 -0.05511,0.05511 -0.06291,0.188721 0,1.900561 0,2.172636 0,0.598214 -0.08698,1.302606 0.05511,1.87095 0.04322,0.172891 -0.04322,0.3782 0,0.551091 0.01,0.03985 0.04705,0.06994 0.05511,0.110218 0.108774,0.543869 -0.108684,1.21869 0,1.762111 0.0081,0.04028 0.04515,0.07037 0.05511,0.110218 0.02593,0.103735 -0.02593,0.22692 0,0.330655 0.01,0.03985 0.04515,0.07037 0.05511,0.110218 0.02593,0.103735 -0.02593,0.22692 0,0.330654 0.07121,0.284853 0.131916,0.581046 0.165327,0.881745 0.02119,0.190742 0.04374,1.698764 0,1.873707 -0.113905,0.455617 -0.267088,0.997262 -0.110908,1.465802 0.0082,0.02461 0.142831,0.208706 0.164638,0.219747 0.01618,0.0082 0.04635,-0.01624 0.05442,0 0.01624,0.0327 -0.02031,0.07919 0,0.109525 0.108183,0.161594 0.07721,0.01167 0.164635,0.05511 0.08213,0.04081 0.147067,0.109611 0.220436,0.164637 0.06172,0.04629 0.103605,0.119036 0.165327,0.165327 0.123093,0.09232 0.301296,0.109497 0.440873,0.165328 0.446284,0.178513 0.959633,0.263054 1.432836,0.330654 0.453104,0.06473 0.925947,-0.0094 1.377726,0.05511 0.195096,0.02787 0.41323,0.07162 0.6062,0.110218 0.167094,0.03342 0.334178,0.132967 0.495982,0.165327 0.05404,0.01081 0.112338,-0.01514 0.165327,0 0.07899,0.02257 0.141445,0.08765 0.220436,0.110219 0.05299,0.01514 0.112339,-0.01514 0.165327,0 0.07899,0.02257 0.142501,0.08424 0.220437,0.110218 0.26344,0.08781 0.557217,0.111443 0.826636,0.165327 0.167894,0.03358 0.326644,0.141136 0.495981,0.165327 0.274246,0.03918 0.549851,0.07562 0.826636,0.110218 0.579015,0.07238 1.183394,-0.06445 1.763491,0 0.389255,0.04325 0.770665,0.116999 1.15729,0.165328 0.41603,0.052 0.851729,0.0031 1.267509,0.05511 0.972238,0.121529 1.991163,0.05511 2.97589,0.05511 0.871431,0 1.587721,-0.01117 2.424802,-0.220437 0.107068,-0.02677 0.223586,-0.02834 0.330654,-0.05511 0.107946,-0.02699 0.185031,-0.119783 0.275546,-0.165327 0.136143,-0.0685 -0.05389,0.162036 0.163948,-0.05442 0.04264,-0.04237 0.05615,-0.177052 0.09678,-0.258815 0.05027,-0.101174 0.01986,-0.440265 0.05442,-0.543506 0.0082,-0.02463 0.04689,-0.03046 0.05511,-0.05511 0.02551,-0.07651 0.02654,-0.7446 0,-0.823878 -0.198064,-0.59172 -0.658137,-0.979078 -1.047072,-1.432836 -0.106769,-0.124564 -0.21568,-0.325901 -0.330651,-0.440871 -0.05809,-0.05809 -0.154715,-0.06093 -0.220436,-0.110218 -0.203879,-0.152909 -0.339347,-0.409928 -0.551091,-0.551091 -0.04833,-0.03222 -0.118057,-0.02135 -0.165327,-0.05511 -0.24998,-0.178557 -0.421088,-0.469132 -0.661309,-0.661309 -0.384858,-0.307886 -0.765054,-0.642677 -1.157291,-0.936854 -0.123805,-0.09285 -0.187965,-0.213881 -0.275545,-0.330654 -0.297299,-0.396398 0.06119,0.116301 -0.220436,-0.165327 -0.02905,-0.02904 -0.02945,-0.07814 -0.05511,-0.110218 -0.10577,-0.132212 -0.224487,-0.253054 -0.330655,-0.385764 -0.203761,-0.254701 -0.458238,-0.46258 -0.661309,-0.716418 -0.126848,-0.158561 -0.20188,-0.335014 -0.330654,-0.495982 -0.195521,-0.244401 -0.504309,-0.564969 -0.661309,-0.826636 -0.02989,-0.04981 -0.02522,-0.115515 -0.05511,-0.165327 -0.118557,-0.197595 -0.33537,-0.340087 -0.440872,-0.55109 -0.02598,-0.05196 -0.02522,-0.115516 -0.05511,-0.165328 -0.06683,-0.111382 -0.19761,-0.17163 -0.275546,-0.275545 -0.06427,-0.08569 -0.103069,-0.188384 -0.165327,-0.275545 C 48.402673,18.003802 48.154569,17.86663 48.000631,17.66138 47.84595,17.455139 47.66092,17.263541 47.50465,17.05518 47.48,17.02232 47.47859,16.97401 47.44954,16.944962 c -0.281629,-0.281628 0.07686,0.231071 -0.220437,-0.165327 -0.02464,-0.03286 -0.02606,-0.08117 -0.05511,-0.110218 -0.13773,-0.137731 -0.358251,-0.248034 -0.495981,-0.385764 -0.02904,-0.02904 -0.02606,-0.08117 -0.05511,-0.110218 -0.279799,-0.279799 -0.751373,-0.596122 -1.102182,-0.771527 -0.169045,-0.08452 -0.278964,-0.23351 -0.440872,-0.330654 -0.208508,-0.125105 -0.402484,-0.249953 -0.6062,-0.385764 -0.06835,-0.04557 -0.154715,-0.06093 -0.220436,-0.110218 -0.197601,-0.1482 -0.353491,-0.347781 -0.551091,-0.495982 -0.236795,-0.177596 -0.487381,-0.354773 -0.716418,-0.55109 -0.0789,-0.06763 -0.13133,-0.166973 -0.220436,-0.220437 -0.04981,-0.02989 -0.115516,-0.02522 -0.165328,-0.05511 -0.372908,-0.223745 -0.872481,-0.755713 -1.212399,-1.047072 -0.240504,-0.206146 -0.530939,-0.3506 -0.771527,-0.551091 -0.515197,-0.42933 -1.012073,-0.869692 -1.543054,-1.267509 -0.193981,-0.145333 -0.394826,-0.268326 -0.566742,-0.362208 -0.05351,-0.029218 -0.152986,0.02788 -0.207325,0 C 37.959167,9.8504944 37.89814,9.924662 37.54748,9.6423996 Z"
     id="path247"
     inkscape:label="dobra" /><path
     style="fill:currentColor"
     d="M 10.684643,75.35131 C 9.7456968,74.412363 9.813004,9.2336039 10.75352,8.6523327 11.167957,8.396197 17.689879,8.0379626 25.246682,7.8562562 L 38.986323,7.525881 48.510092,17.01005 58.03386,26.494218 57.76693,50.997109 57.5,75.5 34.434643,75.767977 c -12.685946,0.147387 -23.373446,-0.04011 -23.75,-0.416667 z M 54.8,72.8 C 55.656276,71.943724 56,65.652492 56,50.836212 V 30.072424 L 46.25,29.786212 36.5,29.5 36.213788,19.75 35.927576,10 H 25.163788 C 18.125286,10 13.984687,10.415313 13.2,11.2 c -1.714076,1.714076 -1.714076,59.885924 0,61.6 1.694677,1.694677 39.905323,1.694677 41.6,0 z M 22,65 c 0,-0.611111 4.666667,-1 12,-1 7.333333,0 12,0.388889 12,1 0,0.611111 -4.666667,1 -12,1 -7.333333,0 -12,-0.388889 -12,-1 z m 0,-6 c 0,-0.611111 4.666667,-1 12,-1 7.333333,0 12,0.388889 12,1 0,0.611111 -4.666667,1 -12,1 -7.333333,0 -12,-0.388889 -12,-1 z m 0,-6 c 0,-0.611111 4.666667,-1 12,-1 7.333333,0 12,0.388889 12,1 0,0.611111 -4.666667,1 -12,1 -7.333333,0 -12,-0.388889 -12,-1 z m 0,-6 c 0,-0.611111 4.666667,-1 12,-1 7.333333,0 12,0.388889 12,1 0,0.611111 -4.666667,1 -12,1 -7.333333,0 -12,-0.388889 -12,-1 z m 0,-6 c 0,-0.611111 4.666667,-1 12,-1 7.333333,0 12,0.388889 12,1 0,0.611111 -4.666667,1 -12,1 -7.333333,0 -12,-0.388889 -12,-1 z M 46.47654,18.969671 38.5,10.939342 38.200873,17.620456 c -0.16452,3.674613 -0.06614,7.288261 0.218615,8.030329 C 38.792423,26.622637 41.10705,27 46.695155,27 H 54.45308 Z M 59.5,39.249156 V 6.5 L 36.75,6.2312255 C 22.722806,6.0655046 14,5.5862295 14,4.9812255 c 0,-0.5836802 4.760533,-0.9975164 11.75,-1.021435 6.4625,-0.022115 17.262588,-0.1346152 24.000196,-0.25 L 62.000391,3.5 62.000196,37.75 C 62.000043,64.483679 61.725682,71.999815 60.75,71.999156 59.775463,71.998498 59.5,64.781364 59.5,39.249156 Z M 63.962403,69.25 c -0.02068,-0.4125 -0.0043,-15.7125 0.03629,-34 L 64.072578,2 H 39.595306 C 24.355814,2 14.884787,1.6225976 14.5,1 14.094017,0.34310515 22.822949,0 39.940983,0 H 66 v 35 c 0,22.666667 -0.352381,35 -1,35 -0.55,0 -1.016919,-0.3375 -1.037597,-0.75 z"
     id="path182" /><rect
     id="rect356"
     width="24.301725"
     height="3.2740633"
     x="21.849001"
     y="39.063549" /><rect
     id="rect356-3"
     width="24.301725"
     height="3.2740633"
     x="21.849001"
     y="57.134125" /><rect
     id="rect356-3-5"
     width="24.301725"
     height="3.2740633"
     x="21.849001"
     y="63.15765" /><rect
     id="rect356-3-6"
     width="24.301725"
     height="3.2740633"
     x="21.849001"
     y="51.1106" /><rect
     id="rect356-3-7"
     width="24.301725"
     height="3.2740633"
     x="21.849001"
     y="45.087074" /></svg>
