<?xml version="1.0" encoding="UTF-8" standalone="no"?>
<!-- Created with Inkscape (http://www.inkscape.org/) -->

<svg
   version="1.1"
   id="svg66"
   width="21.120001"
   height="21.120001"
   viewBox="0 0 21.120001 21.120001"
   sodipodi:docname="megafone_.png"
   xmlns:inkscape="http://www.inkscape.org/namespaces/inkscape"
   xmlns:sodipodi="http://sodipodi.sourceforge.net/DTD/sodipodi-0.dtd"
   xmlns="http://www.w3.org/2000/svg"
   xmlns:svg="http://www.w3.org/2000/svg">
  <defs
     id="defs70" />
  <sodipodi:namedview
     id="namedview68"
     pagecolor="#ffffff"
     bordercolor="#000000"
     borderopacity="0.25"
     inkscape:showpageshadow="2"
     inkscape:pageopacity="0.0"
     inkscape:pagecheckerboard="0"
     inkscape:deskcolor="#d1d1d1"
     showgrid="false"
     inkscape:zoom="29.161457"
     inkscape:cx="7.4756209"
     inkscape:cy="12.259332"
     inkscape:window-width="1916"
     inkscape:window-height="1052"
     inkscape:window-x="0"
     inkscape:window-y="0"
     inkscape:window-maximized="1"
     inkscape:current-layer="svg66" />
  <path
     style="fill:#ffd7d5"
     d="m 6.1771701,12.556254 1.9908533,0.46923 c -0.024333,0.04196 -0.052883,0.08174 -0.072999,0.12587 -0.011716,0.02571 0.01491,0.0656 0.017146,0.08573 0.00953,0.08581 0.00856,0.17133 0.017146,0.257188 0.00857,0.08566 0.036031,0.172451 0.051438,0.257189 0.030006,0.165035 0.050599,0.33329 0.08573,0.497232 0.043931,0.205011 0.1282223,0.408525 0.1543133,0.617253 0.011389,0.09111 0.021317,0.18351 0.034292,0.274335 0.032513,0.227589 0.00244,-0.16662 0.034292,0.120022 0.018426,0.165834 0,0.346854 0,0.514377 0,0.04894 -0.00956,0.106498 0,0.154313 0.00354,0.01772 0.013601,0.03372 0.017146,0.05144 0.00653,0.03267 -0.00807,0.07059 0,0.102876 0.00882,0.03529 0.025468,0.06758 0.034292,0.102875 0.00807,0.03228 -0.00653,0.07021 0,0.102876 0.01329,0.06645 0.051438,0.102093 0.051438,0.171459 0,0.106796 -0.00511,-0.04271 0.017146,0.06858 0.0056,0.02802 -0.0056,0.05771 0,0.08573 0.00826,0.04131 0.026376,0.08044 0.034292,0.120022 0.029612,0.148059 0.032672,0.302146 0.068584,0.445794 0.00693,0.02772 -0.0056,0.05771 0,0.08573 0.00251,0.01253 0.01464,0.02176 0.017146,0.03429 0.010088,0.05044 -0.00638,0.103273 0,0.154313 0.00159,0.01268 0.014046,0.02189 0.017146,0.03429 0.00941,0.03764 -0.0064,0.08163 0,0.120022 0.00387,0.02324 0.013272,0.04534 0.017146,0.06858 0.00819,0.04912 -0.012061,0.106068 0,0.154313 0.012879,0.05152 0.021413,0.102797 0.034292,0.154314 0.01331,0.05324 -0.00776,0.117132 0,0.171459 0.022679,0.158752 0.017146,0.318331 0.017146,0.480086 0,0.109662 -0.015548,0.234085 0,0.342918 0.00748,0.05238 0.030933,0.11631 0.017146,0.171459 -0.018779,0.07512 -0.054249,0.149443 -0.08573,0.222897 -0.064194,0.149787 -0.1592753,0.195598 -0.2743347,0.291481 -0.031046,0.02587 -0.052104,0.06331 -0.08573,0.08573 -0.0781,0.05207 -0.1497188,0.09333 -0.222897,0.154314 -0.029034,0.0242 -0.2066502,0.207549 -0.2228969,0.240043 -0.00511,0.01022 0.00634,0.02478 0,0.03429 -0.00709,0.01063 -0.025255,0.0081 -0.034292,0.01715 -0.019649,0.01965 -0.031789,0.06608 -0.051438,0.08573 -0.133832,0.133832 -0.018416,0.0052 -0.1028756,0.06858 -0.063791,0.04784 -0.00181,0.02662 -0.08573,0.06858 -0.1577911,0.0789 -0.357776,0.05144 -0.5315235,0.05144 -0.2571887,0 -0.5143775,0 -0.7715663,0 -0.1714592,0 -0.3429184,0 -0.5143776,0 -0.082665,0 -0.1997411,0.01864 -0.2713302,-0.01693 -0.00236,-0.0012 -0.031602,0.0012 -0.034077,0 -0.087535,-0.04099 -0.2673014,-0.485816 -0.2912661,-0.581674 -0.014014,-0.05606 -0.068874,-0.103746 -0.08573,-0.154314 -0.00361,-0.01084 0.00277,-0.0232 0,-0.03429 -0.01384,-0.05536 -0.061004,-0.104863 -0.08573,-0.154314 -0.019601,-0.0392 -0.028407,-0.08164 -0.051438,-0.120021 -0.028696,-0.04783 -0.071953,-0.09921 -0.08573,-0.154313 -0.010994,-0.04397 -0.020065,-0.09449 -0.034292,-0.137168 -0.00511,-0.01534 -0.02918,-0.01896 -0.034292,-0.03429 -0.021024,-0.06307 -0.030616,-0.143284 -0.051438,-0.205751 -0.03422,-0.102661 -7.13e-5,0.06837 -0.034292,-0.03429 -0.00361,-0.01084 0.00361,-0.02345 0,-0.03429 -0.00909,-0.02727 -0.042328,-0.0586 -0.051223,-0.08552 -0.00359,-0.01085 0.00277,-0.0232 0,-0.03429 -0.012912,-0.05165 -0.053906,-0.0932 -0.068369,-0.136953 -0.00993,-0.03004 -0.00714,-0.05572 -0.017146,-0.08573 -0.00256,-0.0077 -0.01459,-0.0095 -0.017146,-0.01715 -0.0095,-0.02849 0,-0.09163 0,-0.120021 0,-0.03687 -0.00772,-0.09854 0,-0.137167 -0.00393,-0.03443 0.026827,-0.05587 0.034292,-0.08573 0.021797,-0.08719 0.047485,-0.172794 0.068584,-0.257189 0.0062,-0.0248 0.028093,-0.04379 0.034292,-0.06858 0.014738,-0.05895 0.014039,-0.127847 0.034292,-0.188606 0.00808,-0.02425 0.02727,-0.04401 0.034292,-0.06858 0.00471,-0.01649 -0.00282,-0.03452 0,-0.05144 0.010042,-0.06025 0.05401,-0.113165 0.068584,-0.171459 0.015215,-0.06086 0.022038,-0.127338 0.034292,-0.188605 0.00604,-0.03018 0.026827,-0.05587 0.034292,-0.08573 0.011431,-0.05144 0.022861,-0.102875 0.034292,-0.154313 0,-0.01715 -0.00282,-0.03453 0,-0.05144 0.012309,-0.07386 0.040504,-0.146362 0.051438,-0.222897 0.010373,-0.07261 -0.012053,-0.150577 0,-0.222897 0.00297,-0.01783 0.014904,-0.0335 0.017146,-0.05144 0.011747,-0.09397 -0.018567,-0.198648 0,-0.29148 0.00251,-0.01253 0.01464,-0.02176 0.017146,-0.03429 0.00871,-0.04353 -0.010755,-0.09415 0,-0.137167 0.0031,-0.0124 0.01464,-0.02176 0.017146,-0.03429 0.00673,-0.03363 -0.00564,-0.06905 0,-0.102876 0.02524,-0.151441 0.060997,-0.297395 0.08573,-0.445794 0.0083,-0.04982 -0.00503,-0.104012 0,-0.154313 0.00795,-0.07946 0.019232,-0.147597 0.034292,-0.222897 0.00879,-0.04397 -0.00738,-0.09291 0,-0.137167 0.014393,-0.08636 0.060531,-0.173192 0.08573,-0.257189 0.06965,-0.232167 0.1928405,-0.440507 0.2743347,-0.668691 0.027727,-0.07764 0.045912,-0.160691 0.068584,-0.240043 0.013415,-0.04695 0.039559,-0.0898 0.051438,-0.137167 0.014554,-0.05803 0.00531,-0.129009 0.017146,-0.188176 0.00501,-0.02506 0.026209,-0.04434 0.034292,-0.06858 0.022401,-0.0672 0.023096,-0.12143 0.034292,-0.188605 0.00802,-0.04814 0.056714,-0.08969 0.068584,-0.137167 0.00277,-0.01109 0,-0.02286 0,-0.03429 0.011431,-0.01143 0.027062,-0.01983 0.034292,-0.03429 0.00511,-0.01022 -0.00634,-0.02478 0,-0.03429 0.00709,-0.01063 0.025255,-0.0081 0.034292,-0.01715 0.035033,-0.03503 0.050587,-0.101957 0.08573,-0.136952 0.035116,-0.03497 0.033983,-0.0022 0.060436,-0.01693 0.0069,-0.0038 0.011431,-0.01089 0.017146,-0.01634 0.025119,-0.01096 0.050238,-0.02192 0.075358,-0.03288 z"
     id="path487" />
  <path
     style="fill:currentColor"
     d="m 2.9097738,6.1476533 c 0.097051,-0.02264 0.1637456,-0.098247 0.2424799,-0.145488 0.021917,-0.01315 0.050827,-0.011098 0.072744,-0.024248 0.019603,-0.011762 0.028048,-0.038272 0.048496,-0.048496 0.045722,-0.022861 0.095895,-0.036098 0.1454879,-0.048496 0.026428,-0.00661 0.09148,0.014158 0.1165899,0 0.1232561,-0.069498 0.2943743,-0.062211 0.4334972,-0.096992 0.052229,-0.013057 0.1188131,0.016974 0.169736,0 0.1067124,-0.035571 0.2295349,-0.04526 0.3394719,-0.072744 0.031365,-0.00784 0.06632,0.010224 0.096992,0 0.036964,-0.012321 0.077593,-0.037584 0.12124,-0.048496 0.031365,-0.00784 0.065627,0.00784 0.096992,0 0.060912,-0.015228 0.1328741,-0.028126 0.1939839,-0.048496 C 5.3412706,5.4962687 5.6733806,5.3154212 6.0301473,5.2262296 6.0943181,5.2101869 6.1647627,5.1589219 6.2241312,5.1292376 6.3858876,5.0483594 6.5411577,4.952989 6.7090911,4.9110057 c 0.035067,-0.00877 0.061924,-0.039729 0.096992,-0.048496 0.2133095,-0.053327 0.4357132,-0.1016914 0.6546958,-0.1454879 0.046201,-0.00924 0.099833,0.011414 0.145488,0 0.017534,-0.00438 0.030773,-0.020704 0.048496,-0.024248 0.050123,-0.010025 0.1208294,0.016302 0.169736,0 0.010844,-0.00361 0.013404,-0.020633 0.024248,-0.024248 0.104718,-0.034906 0.231333,-0.045709 0.3394719,-0.072744 0.1095208,-0.02738 0.2066017,-0.1237635 0.3152239,-0.145488 0.023777,-0.00476 0.048967,0.00476 0.072744,0 0.067843,-0.013569 0.1268203,-0.055953 0.193984,-0.072744 0.08669,-0.021672 0.1805717,-0.031265 0.2667279,-0.048496 0.035445,-0.00709 0.061924,-0.039729 0.096992,-0.048496 0.039207,-0.0098 0.081377,0.00664 0.12124,0 0.2128531,-0.035475 -0.037065,-0.00892 0.12124,-0.048496 0.095178,-0.023794 0.1951177,-0.034802 0.2909759,-0.048496 0.3368965,-0.048128 -0.053413,0.00123 0.1454879,-0.048496 0.1207909,-0.030198 0.2449426,-0.04305 0.3637196,-0.072744 0.120162,-0.03004 0.247512,-0.074757 0.36372,-0.12124 0.07564,-0.030258 0.163264,-0.081149 0.24248,-0.096992 0.02378,-0.00476 0.04943,0.00666 0.07274,0 0.105785,-0.030224 0.204002,-0.098996 0.315224,-0.1212399 0.05434,-0.010868 0.116244,-0.010875 0.169735,-0.024248 0.06707,-0.016766 0.129618,-0.071245 0.193984,-0.096992 0.158513,-0.063405 0.325866,-0.1060982 0.48496,-0.1697359 0.08086,-0.032345 0.159668,-0.034694 0.24248,-0.048496 0.04934,0.00842 0.07856,-0.03996 0.12124,-0.048496 0.02378,-0.00476 0.04907,0.00526 0.07274,0 0.08564,0.03166 0.126988,-0.055995 0.193984,-0.072744 0.103085,-0.025771 0.21283,-0.047145 0.315224,-0.072744 0.03507,-0.00877 0.06192,-0.039729 0.09699,-0.048496 0.07909,-0.019772 0.162388,-0.032478 0.24248,-0.048496 0.07382,-0.014763 0.143324,-0.08201 0.218232,-0.096992 0.02378,-0.00476 0.04897,0.00476 0.07274,0 0.06411,-0.012822 0.130239,-0.056808 0.193984,-0.072744 0.07478,-0.018696 0.169339,-0.060554 0.24248,-0.072744 0.02392,-0.00399 0.04897,0.00476 0.07274,0 0.03544,-0.00709 0.06343,-0.035071 0.09699,-0.048496 0.244086,-0.097635 -0.05148,0.018933 0.121239,-0.024248 0.06716,-0.016791 0.126141,-0.059175 0.193984,-0.072744 0.06898,-0.013796 0.149591,-0.00709 0.218232,-0.024248 0.0982,-0.02455 0.191514,-0.052851 0.290976,-0.072744 0.121814,-0.024363 0.243631,-0.091218 0.36372,-0.12124 0.03136,-0.00784 0.06808,0.014459 0.09699,0 0.02045,-0.010224 0.02947,-0.035815 0.0485,-0.048496 0.0063,-0.0042 0.117266,-0.01392 0.169131,-0.048496 0.02926,-0.019506 0.212515,-0.1593415 0.215498,-0.1682171 0.02802,-0.08335 0.03057,-0.1701977 0.06948,-0.2485027 0.02507,-0.050458 -0.02544,-0.1385738 0,-0.1888251 0.03709,-0.073252 0.0049,-0.1294918 0.02425,-0.1685223 0.06659,-0.1340284 0.02394,-0.4983885 0.02394,-0.67201601 0,-0.18929785 -0.01905,-0.37697553 0.06401,-0.51063563 0.02606,-0.0419339 0.310731,-0.0603832 0.390796,-0.0603832 0.04342,0 0.03191,-0.0107017 0.0691,-0.023945 0.0357,-0.0127091 0.394313,-0.0158874 0.439923,0 0.03094,0.0107766 0.06502,0.0379249 0.09608,0.0481926 0.01535,0.005073 0.034,-0.007157 0.0485,0 0.0072,0.003534 -0.0071,0.0203752 0,0.0239446 0.05866,0.0293288 0.21497,0 0.282784,0 0.203667,0 0.407333,0 0.611,0 0.106439,0 0.515946,0.0267468 0.596186,0 0.01084,-0.003615 0.0134,-0.0206333 0.02425,-0.024248 0.07905,-0.0263509 0.182655,0.0203844 0.263682,0 0.125122,-0.0314773 -0.02518,-0.024248 0.09699,-0.024248 0.04368,0 0.272542,0.0183508 0.307638,0 0.01007,-0.005264 0.0138,-0.0191424 0.02395,-0.024248 0.03987,-0.020062 0.109159,0.0194553 0.149386,0 0.03005,-0.0145342 0.14496,-0.0420913 0.162739,-0.022657 0.02231,0.0243845 0.0016,0.10728539 0.02401,0.12966142 0.0052,0.005219 0.01696,-0.005252 0.02214,0 0.06696,0.0678352 0.04523,0.62695142 0.04523,0.78387252 0,0.1067471 -0.02605,0.256532 0,0.3600784 0.0028,0.011085 0.02063,0.013404 0.02425,0.024248 0.03039,0.091183 0,0.659198 0,0.809569 0,0.085913 -0.02939,0.4222858 0,0.4810712 0.005,0.010096 0.0189,0.013848 0.02395,0.023944 0.03047,0.060942 0,0.7600053 0,0.8887501 0,0.061097 -0.0191,0.1592731 0,0.2161067 0.0036,0.010835 0.02063,0.013404 0.02425,0.024248 0.02967,0.089017 0,0.5813589 0,0.741003 0,0.1558587 0.03763,0.4514172 -0.02395,0.5723978 -0.01696,0.033316 0.0091,0.3003316 0,0.3062937 -0.0063,0.00414 -0.01739,-0.0054 -0.02268,0 -0.01928,0.019642 0.02242,0.2461806 0.02395,0.247523 0.006,0.00526 0.0172,-0.00427 0.02395,0 0.0072,0.00457 0,0.1207678 0,0.1320371 0,0.054099 0.01711,0.1537289 0,0.2054989 -0.05348,0.1617975 -0.06111,0.3465594 -0.141308,0.4866722 -0.0017,0.00293 -0.0079,0.063581 -0.02243,0.094564 -0.0224,0.047828 0,0.4739465 0,0.5565205 0,0.090273 -0.02211,0.6287303 0,0.6694986 0.03847,0.070932 -0.01048,0.1692292 0.02394,0.2380866 0.0369,0.073815 0.0058,0.1668823 0.02394,0.2003426 0.06036,0.1115046 0.022,0.3570096 0.022,0.4890313 0,0.064275 0.01543,0.1556808 0,0.2170183 -0.0028,0.011085 -0.02063,0.013404 -0.02425,0.024248 -0.03558,0.1067529 0.03599,0.2495339 0,0.3561335 -0.0058,0.017081 -0.01953,0.031016 -0.02395,0.048496 -0.03052,0.120907 0,0.330464 0,0.4584724 0,0.337153 0,0.674307 0,1.011461 0,0.03608 -0.02288,0.184976 0,0.215643 0.0056,0.0075 0.01841,0.008 0.0231,0.01611 0.0068,0.01182 0.06318,0.579994 0.04385,0.635764 -0.01088,0.0314 -0.03776,0.06571 -0.04819,0.09699 -0.0051,0.01534 0.0051,0.03316 0,0.0485 -0.0036,0.01084 -0.02063,0.0134 -0.02425,0.02425 -0.0077,0.023 0.01079,0.05103 0,0.07274 -0.005,0.01011 -0.0204,0.01323 -0.02395,0.02395 -0.0142,0.04294 -0.03824,0.464032 -0.02425,0.482535 0.02904,0.03841 0.02507,0.135365 0.05457,0.191756 0.01947,0.03721 0.01481,0.708267 0,0.752713 -0.0036,0.01084 -0.02147,0.01316 -0.02425,0.02425 -0.02324,0.09268 0,0.224791 0,0.320263 0,0.01032 -0.0085,0.02506 0,0.03097 0.0063,0.0044 0.01766,-0.0054 0.0231,0 0.01179,0.01179 -0.01218,0.06141 0,0.07271 0.0042,0.0039 0.0139,-0.0046 0.01738,0 0.01319,0.01754 -0.01236,0.0627 0,0.08096 0.0142,0.02096 0.04132,0.104363 0.04132,0.117395 0,0.09534 0.0199,0.139557 0.0199,0.240113 0,0.01411 -0.01,0.03235 0,0.04233 0.01877,0.01877 0.0199,0.0023 0.0199,0.04486 0,0.159517 -0.04003,0.398374 0.0199,0.540968 0.02346,0.05583 0,0.433709 0,0.517328 0,0.386946 0,0.773893 0,1.160839 0,0.07831 0.0026,0.3328 0,0.334607 -0.0063,0.0044 -0.01776,-0.0055 -0.0231,0 -0.02081,0.02156 0.0152,0.09912 0,0.125982 -0.0054,0.0095 -0.01893,0.01271 -0.02394,0.02242 -0.01245,0.02412 0.0058,0.102567 -0.01611,0.11984 -0.02447,0.01929 -0.03365,0.03954 -0.05508,0.06097 -0.01023,0.01023 -0.05411,0.01311 -0.06779,0.0199 -0.02784,0.01383 -0.04159,0.03337 -0.06725,0.04789 -0.04658,0.02635 -0.134892,-0.02124 -0.184376,0 -0.03534,0.01517 -0.05126,0.01738 -0.0919,0.01738 -0.0559,0 -0.136077,-0.01405 -0.189565,0 -0.01748,0.0046 -0.03136,0.01851 -0.0485,0.02425 -0.07052,0.02361 -0.164607,-0.02343 -0.235198,0 -0.195755,0.06498 -0.535012,0.02394 -0.746836,0.02394 -0.26429,0 -0.954945,0.04619 -1.143951,-0.04233 -0.02601,-0.01218 -0.16717,-0.0078 -0.181107,-0.02395 -0.005,-0.0058 0.0055,-0.01776 0,-0.0231 -0.0098,-0.0095 -0.04592,0.0063 -0.0587,0 -0.05071,-0.02519 -0.10368,-0.03742 -0.152537,-0.06249 -0.04016,-0.0206 -0.112774,0.02092 -0.152755,0 -0.05205,-0.02724 -0.119884,-0.0038 -0.154365,-0.0231 -0.03247,-0.01822 -0.06367,-0.0522 -0.09585,-0.068 -0.01217,-0.006 -0.03248,0.0108 -0.04068,0 -0.0044,-0.0059 0.0053,-0.01697 0,-0.02205 -0.0087,-0.0083 -0.02973,0.0102 -0.03615,0 -0.0037,-0.0058 0.0051,-0.01612 0,-0.02073 -0.0439,-0.03937 -0.0036,0.06238 -0.04736,-0.02311 -0.01347,-0.02631 -0.06719,-0.143417 -0.08458,-0.1608 -0.04661,-0.04661 -0.0025,0.06972 -0.04648,-0.02395 -0.01389,-0.02957 -0.120453,-0.313259 -0.109715,-0.329094 0.0068,-0.01 0.1075,-0.04467 0.108422,-0.04599 0.01707,-0.02447 0.03153,-0.07464 0.04595,-0.104186 0.03897,-0.07987 -0.04107,-0.222895 -0.04107,-0.285324 0,-0.09027 0.02254,-0.544541 0,-0.589904 -0.0051,-0.01017 -0.02039,-0.01346 -0.02395,-0.02425 -0.01905,-0.05787 0.01941,-0.135022 0,-0.19277 -0.0084,-0.02504 -0.03625,-0.04841 -0.04819,-0.07244 -0.01087,-0.02188 0.01618,-0.07907 0,-0.09524 -0.0054,-0.0054 -0.01766,0.0054 -0.0231,0 -0.01268,-0.0082 0.0095,-0.03094 0,-0.04048 -0.0041,-0.0041 -0.01389,0.0046 -0.01738,0 -0.0092,-0.01225 0.006,-0.04376 0,-0.05836 -0.01496,-0.0362 -0.02203,-0.05988 -0.0388,-0.09342 -0.0036,-0.0071 0,-0.01596 0,-0.02394 0,-0.01546 0.0071,-0.03264 0,-0.04637 -0.0037,-0.0071 -0.02039,0.0071 -0.02394,0 -0.01057,-0.02128 0.01166,-0.05059 0,-0.07129 -0.04016,-0.07129 -0.235609,-0.0951 -0.30399,-0.117891 -0.176406,-0.0588 0.03786,0.007 -0.07244,-0.04819 -0.01307,-0.0065 -0.03351,0.01034 -0.04385,0 -0.0047,-0.0047 0.005,-0.0155 0,-0.0199 -0.03069,-0.02724 -0.09981,-0.02729 -0.137872,-0.04621 -0.01602,-0.008 -0.0082,-0.03993 -0.02425,-0.04789 -0.02208,-0.01097 -0.166704,-0.03531 -0.193074,-0.0485 -0.0071,-0.0036 0.0056,-0.0183 0,-0.02394 -0.0098,-0.0098 -0.129087,-0.01715 -0.142758,-0.02394 -0.140802,-0.06996 -0.300632,-0.09444 -0.446721,-0.143971 -0.02559,-0.0087 -0.06737,0.01224 -0.09123,0 -0.04797,-0.02461 -0.09633,-0.02407 -0.144579,-0.04789 -0.02881,-0.01422 -0.06523,0.0078 -0.09638,0 -0.01108,-0.0028 -0.0134,-0.02063 -0.02425,-0.02425 -0.03401,-0.01134 -0.08898,0.01588 -0.120937,0 -0.03475,-0.01727 -0.06147,-0.03058 -0.09608,-0.04789 -0.0183,-0.0091 -0.05061,0.0093 -0.0688,0 -0.04819,-0.02472 -0.110752,-0.05266 -0.168522,-0.07183 -0.0077,-0.0025 -0.01617,0 -0.02425,0 -0.01596,0 -0.03276,0.0051 -0.04789,0 -0.03115,-0.01047 -0.06584,-0.03811 -0.09699,-0.0485 -0.02291,-0.0076 -0.05082,0.01074 -0.07244,0 -0.05227,-0.02597 -0.114905,-0.04519 -0.168524,-0.07183 -0.01022,-0.0051 -0.05772,0.0088 -0.06431,0 -0.0043,-0.0057 0.0065,-0.01854 0,-0.02147 -0.02185,-0.0098 -0.05039,0.01065 -0.07183,0 -0.03437,-0.01708 -0.0605,-0.03081 -0.09487,-0.04789 -0.01384,-0.0069 -0.03544,0.01093 -0.04637,0 -0.0053,-0.0053 0.0055,-0.01732 0,-0.02243 -0.01142,-0.0107 -0.09052,-0.0066 -0.108525,-0.01612 -0.009,-0.0047 -0.01027,-0.01985 -0.0199,-0.0231 -0.0218,-0.01522 -0.04972,0.0076 -0.07274,0 -0.04365,0.01453 -0.04493,-0.03902 -0.07244,-0.04819 -0.02995,-0.01 -0.06485,0.01027 -0.0947,0 -0.02517,-0.0087 -0.04815,-0.03612 -0.07244,-0.04819 -0.01309,-0.0065 -0.03351,0.01033 -0.04385,0 -0.0047,-0.0047 0.0047,-0.01521 0,-0.0199 -0.01519,-0.01519 -0.0933,-0.01534 -0.110728,-0.02394 -0.0072,-0.0035 0.0071,-0.02039 0,-0.02395 -0.02153,-0.0107 -0.05459,0.01644 -0.07214,0 -0.0055,-0.0051 0.0055,-0.01732 0,-0.02243 -0.01748,-0.01637 -0.04861,0.0058 -0.07184,0 -0.05181,-0.01303 -0.10182,-0.05074 -0.144882,-0.07214 -0.02153,-0.0107 -0.04934,0.0077 -0.07214,0 -0.03172,-0.01066 -0.06422,-0.03306 -0.09487,-0.04819 -0.03436,-0.01696 -0.0859,-0.01227 -0.120937,-0.02394 -0.01084,-0.0036 -0.0134,-0.02063 -0.02425,-0.02425 -0.02291,-0.0076 -0.05082,0.01074 -0.07244,0 -0.03049,-0.01515 -0.06368,-0.03683 -0.09585,-0.04705 -0.02301,-0.0073 -0.05081,0.01074 -0.07244,0 -0.121208,-0.06023 0.201665,0.01655 -0.12124,-0.04819 -0.01516,-0.003 -0.03264,0.0071 -0.04637,0 -0.01003,-0.0052 -0.01323,-0.02038 -0.02394,-0.02394 -0.02272,-0.0076 -0.05039,0.01065 -0.07184,0 -0.03754,-0.01865 -0.07598,-0.03688 -0.12124,-0.04819 -0.03136,-0.0078 -0.06632,0.01022 -0.09699,0 -0.03359,-0.0112 -0.13192,-0.06014 -0.169736,-0.07274 -0.03857,-0.01286 -0.173545,-0.0025 -0.216715,-0.02394 -0.107479,-0.0534 -0.248704,-0.05835 -0.36372,-0.09669 -0.03111,-0.01037 -0.06589,-0.03813 -0.09699,-0.0485 -0.03067,-0.01022 -0.06632,0.01022 -0.096992,0 -0.010844,-0.0036 -0.013635,-0.02 -0.024248,-0.02425 -0.090942,-0.03638 -0.179935,-0.05082 -0.2664245,-0.07244 -0.043887,0.01462 -0.045097,-0.03928 -0.072744,-0.0485 -0.015336,-0.0051 -0.032813,0.0039 -0.048496,0 -0.035068,-0.0088 -0.062236,-0.03857 -0.096992,-0.0485 -0.049738,-0.06276 -0.1142893,-0.01039 -0.169736,-0.02425 -0.058206,-0.01455 -0.1192122,-0.0559 -0.1697359,-0.07274 -0.015336,-0.0051 -0.032813,0.0039 -0.048496,0 -0.074303,-0.01858 -0.022689,-0.02992 -0.096992,-0.0485 -0.023426,-0.0059 -0.050816,0.01074 -0.072441,0 -0.010173,-0.0051 -0.013467,-0.02037 -0.024248,-0.02394 -0.01515,-0.005 -0.033611,0.0071 -0.047889,0 -0.00714,-0.0036 0.00715,-0.02039 0,-0.02394 -0.030124,-0.01497 -0.1764011,-0.03811 -0.2179286,-0.0485 -0.035067,-0.0088 -0.0627,-0.03707 -0.096992,-0.0485 -0.03048,-0.01016 -0.065228,0.0078 -0.096385,0 -0.011085,-0.0028 -0.013039,-0.02201 -0.024248,-0.02425 -0.082212,-0.01644 -0.1619747,-0.0041 -0.2424799,-0.02425 -0.084261,-0.02107 -0.1597617,-0.06942 -0.2424799,-0.09699 -0.039521,-0.01317 -0.1059667,-0.01107 -0.145488,-0.02425 -0.010844,-0.0036 -0.013404,-0.02063 -0.024248,-0.02425 -0.015336,-0.0051 -0.03316,0.0051 -0.048496,0 -0.010844,-0.0036 -0.013404,-0.02063 -0.024248,-0.02425 -0.015336,-0.0051 -0.032813,0.0039 -0.048496,0 -0.057189,-0.0143 -0.1125467,-0.05845 -0.169736,-0.07274 -0.015683,-0.0039 -0.032953,0.0044 -0.048496,0 -0.059187,-0.01691 -0.1100182,-0.05782 -0.169736,-0.07274 -0.1417607,-0.03544 -0.2752982,-0.07523 -0.4100906,-0.120937 -0.026902,-0.0091 -0.068863,0.01228 -0.094261,0 C 6.670184,12.38465 6.6169349,12.37822 6.5594902,12.36673 6.4660112,12.34803 6.3852152,12.28823 6.2927623,12.26974 6.2430333,12.25984 6.0665044,12.21699 6.0260344,12.197 c -0.00976,-0.0048 -0.012738,-0.01976 -0.023103,-0.0231 -0.04351,-0.01404 -0.1021636,-0.0098 -0.1454879,-0.02425 -0.021688,-0.0072 -0.026808,-0.04127 -0.048496,-0.0485 -0.015336,-0.0051 -0.03316,0.0051 -0.048496,0 -0.027647,-0.0092 -0.045958,-0.03702 -0.072744,-0.0485 -0.2441479,-0.104635 -0.017169,0.01343 -0.2182319,-0.07274 -0.026786,-0.01148 -0.045686,-0.03767 -0.072744,-0.0485 -0.02242,-0.009 -0.050816,0.01074 -0.072441,0 -0.030975,-0.01539 -0.065039,-0.06179 -0.096992,-0.07244 -0.022908,-0.0076 -0.050816,0.01075 -0.072441,0 -0.00225,-0.0011 -0.046052,-0.04647 -0.048193,-0.04789 -0.050077,-0.0331 -0.094062,-0.03095 -0.1448804,-0.04789 -0.021688,-0.0072 -0.026808,-0.04127 -0.048496,-0.0485 -0.015336,-0.0051 -0.03316,0.0051 -0.048496,0 -0.029926,-0.01 -0.063785,-0.05278 -0.09265,-0.0687 -0.016142,-0.0089 -0.04652,-0.01047 -0.062416,-0.01864 -0.024069,-0.01237 -0.073657,-0.07073 -0.1093609,-0.08263 -0.015336,-0.0051 -0.03316,0.0051 -0.048496,0 -0.021688,-0.0072 -0.029474,-0.03581 -0.048496,-0.0485 -0.070092,-0.04673 -0.1285298,-0.04162 -0.191573,-0.08946 -0.016021,-0.01216 -0.081403,-0.0091 -0.092207,-0.0199 -0.00529,-0.0053 0.00546,-0.01732 0,-0.02243 -0.038286,-0.03586 -0.1659844,-0.03216 -0.2127716,-0.04789 -0.010835,-0.0036 -0.014024,-0.01914 -0.024248,-0.02425 -0.00723,-0.0036 -0.016165,0 -0.024248,0 -0.015963,0 -0.033611,0.0071 -0.047889,0 -0.00714,-0.0036 0.00715,-0.02039 0,-0.02394 -0.039305,-0.01953 -0.1128988,0.01454 -0.1879146,-0.02395 -0.023835,-0.01223 -0.0668,0.01241 -0.090522,0 -0.038589,-0.02019 -0.05539,-0.0097 -0.094868,-0.0231 -0.1629374,-0.05525 -0.227013,-0.09342 -0.4117333,-0.09342 -0.1597053,0 0.034381,0.01136 -0.072441,-0.02425 -0.0074,-0.0025 -0.1131925,0.01065 -0.1212008,0 -0.00463,-0.0062 0.00545,-0.01766 0,-0.0231 -0.034117,-0.03412 -0.1815957,-0.06854 -0.2409229,-0.09821 -0.014117,-0.0071 -0.035391,0.0103 -0.047351,0 -0.00503,-0.0043 0.0051,-0.01566 0,-0.0199 -0.010997,-0.0091 -0.060568,-0.01392 -0.071294,-0.0231 -0.008,-0.0069 -0.023945,-0.137442 -0.023945,-0.165944 0,-0.02074 -0.0299,-0.05155 -0.039216,-0.07675 -0.00795,-0.02151 0.010468,-0.04839 0,-0.0688 -0.014825,-0.0289 -0.057737,-0.04346 -0.072138,-0.07244 -0.00715,-0.01439 0.010268,-0.03584 0,-0.04819 -0.00424,-0.0051 -0.015571,0.005 -0.0199,0 -0.00996,-0.01156 0,-0.03052 0,-0.04579 0,-0.06838 -0.027748,-0.196489 0,-0.255465 0.012544,-0.02666 0.027023,-0.04562 0.040365,-0.0729 0.029454,-0.06022 0,-0.3691221 0,-0.4522951 0,-0.038898 -0.012489,-0.079855 0,-0.1166935 0.00365,-0.010758 0.020393,-0.013458 0.023945,-0.024248 0.00755,-0.022936 -0.010427,-0.050661 0,-0.072441 0.017606,-0.036773 0.00922,-0.073767 0.021994,-0.09932 0.00487,-0.00974 0.019745,-0.012742 0.023102,-0.023103 0.00989,-0.030524 0.00482,-0.6424718 0,-0.6524359 -0.02267,-0.046976 -0.0058,-0.100236 -0.022379,-0.132552 -0.046277,-0.090209 -0.037125,-0.1988756 -0.071296,-0.3005321 -0.031214,-0.092862 0.031215,-0.2172023 0,-0.3100647 -0.00573,-0.017046 -0.01854,-0.03114 -0.024248,-0.048193 -0.015235,-0.045513 0.020983,-0.12118 0,-0.1647469 -0.050231,-0.1042922 -0.076293,-0.6840316 -0.023943,-0.7958089 0.036935,-0.078864 0.00766,0.030566 0.045532,-0.047048 0.00692,-0.014185 -0.011161,-0.03619 0,-0.047351 0.017351,-0.017351 0.052681,-0.00533 0.070032,-0.022681 0.00572,-0.00572 -0.0036,-0.01701 0,-0.024248 0.020595,-0.04145 0.08795,-0.067287 0.1085758,-0.092208 0.02192,-0.026485 0.00486,-0.1026931 0.023103,-0.1331219 0.019372,-0.032319 0.029176,-0.057528 0.047048,-0.092041 0.00608,-0.011744 -0.010569,-0.031725 0,-0.039675 0.00615,-0.00463 0.017607,0.0054 0.023102,0 0.00923,-0.00906 -0.010607,-0.031397 0,-0.038795 0.00632,-0.00441 0.017755,0.00554 0.023103,0 0.00996,-0.010321 -0.010662,-0.054287 0,-0.063748 0.00559,-0.00496 0.019274,0.00678 0.022428,0 0.010146,-0.021801 -0.016438,-0.054587 0,-0.072137 0.00511,-0.00546 0.017316,0.00546 0.022427,0 0.017091,-0.018247 0.00303,-0.061798 0.016115,-0.083545 0.0038,-0.00631 0.015082,0.00225 0.022097,0 0.034281,-0.010977 0.067788,-0.024237 0.1016813,-0.036356 z"
     id="path607" />
  <path
     style="fill:#767676;stroke-width:0.32"
     d="m 7.2000003,20.908928 -0.64,0.164541 L 5.9088905,20.812531 5.2577807,20.551593 4.8247394,20.02981 4.3916981,19.508027 l 0.1966205,-1.674013 0.1966205,-1.674013 0.1161434,-0.48 0.1161433,-0.48 0.2476583,-1.203508 0.2476586,-1.203508 -0.3869629,-0.466262 -0.3869629,-0.466261 -0.2093085,0.03555 -0.2093082,0.03555 -1.04,-0.397085 -1.0400001,-0.397085 0.0049,-2.2886966 0.0049,-2.2886961 L 2.4849,6.2127116 2.7199999,5.8654239 4,5.5159865 5.28,5.1665487 8.4800002,4.2005877 11.680001,3.2346264 l 1.92,-0.6144082 1.92,-0.6144082 0.163142,-0.9229055 0.163143,-0.92290549 h 2.076858 2.076857 V 8.9600004 17.760001 h -2.08 -2.08 l -0.16,-1.224491 -0.16,-1.224491 -3.36,-1.092029 -3.3600008,-1.092029 -0.081606,-0.0035 -0.081606,-0.0035 0.2019037,3.12 0.2019037,3.12 -0.6002973,0.692193 -0.6002976,0.692194 z M 6.7307686,20.160001 h 0.9344778 l 0.4464836,-0.72 0.4464838,-0.72 -0.3152947,-2.774392 -0.3152944,-2.774392 -0.8015719,-0.201182 -0.8015719,-0.201182 -0.081608,0.09557 -0.081608,0.09557 -0.6401712,2.946564 -0.6401715,2.946564 0.4576845,0.653436 0.4576841,0.653436 z m 11.1892324,-2.88 h 1.6 V 8.9600004 0.64000003 h -1.6 -1.6 V 8.9600004 17.280001 Z m -2.32,-2.59426 0.08,0.03426 V 8.6840062 2.6480116 L 9.2800004,4.5901797 2.8800001,6.5323481 v 2.1093694 2.1093695 l 6.3200003,1.950197 6.3200006,1.950197 z M 1.2800001,10.56 H 0.96000005 V 8.4800004 6.4000003 h 0.32000005 0.32 V 8.4800004 10.56 Z"
     id="path420" />
</svg>
