<?xml version="1.0" encoding="UTF-8" standalone="no"?>
<!-- Created with Inkscape (http://www.inkscape.org/) -->

<svg
   version="1.1"
   id="svg243"
   width="15.36"
   height="15.36"
   viewBox="0 0 15.36 15.36"
   xmlns="http://www.w3.org/2000/svg"
   xmlns:svg="http://www.w3.org/2000/svg">
  <defs
     id="defs247" />
  <path
     style="fill:currentColor"
     d="M 7.68,15.36 H 0 V 8.32 1.28 H 1.28 2.56 V 1.92 2.56 H 1.92 1.28 v 0.96 0.96 h 6.4 6.4 V 3.52 2.56 H 13.44 12.8 V 1.92 1.28 h 1.28 1.28 v 7.04 7.04 z m 0,-1.28 h 6.4 V 9.92 5.76 h -6.4 -6.4 v 4.16 4.16 z M 3.84,12.16 H 2.56 V 11.2 10.24 h 1.28 1.28 v 0.96 0.96 z m 3.84,0 H 6.4 V 11.2 10.24 h 1.28 1.28 v 0.96 0.96 z m 3.84,0 H 10.24 V 11.2 10.24 h 1.28 1.28 v 0.96 0.96 z M 3.84,8.96 H 2.56 V 8 7.04 H 3.84 5.12 V 8 8.96 Z m 3.84,0 H 6.4 V 8 7.04 H 7.68 8.96 V 8 8.96 Z m 3.84,0 H 10.24 V 8 7.04 h 1.28 1.28 V 8 8.96 Z M 3.84,3.84 H 3.2 V 1.92 0 h 0.64 0.64 v 1.92 1.92 z m 7.68,0 H 10.88 V 1.92 0 h 0.64 0.64 V 1.92 3.84 Z M 7.68,2.56 H 5.12 V 1.92 1.28 h 2.56 2.56 v 0.64 0.64 z"
     id="path308" />
</svg>
