<?xml version="1.0" encoding="UTF-8" standalone="no"?>
<!-- Created with Inkscape (http://www.inkscape.org/) -->

<svg
   version="1.1"
   id="svg455"
   width="15.36"
   height="15.36"
   viewBox="0 0 15.36 15.36"
   sodipodi:docname="landingIcon.png"
   xmlns:inkscape="http://www.inkscape.org/namespaces/inkscape"
   xmlns:sodipodi="http://sodipodi.sourceforge.net/DTD/sodipodi-0.dtd"
   xmlns="http://www.w3.org/2000/svg"
   xmlns:svg="http://www.w3.org/2000/svg">
  <defs
     id="defs459" />
  <sodipodi:namedview
     id="namedview457"
     pagecolor="#ffffff"
     bordercolor="#000000"
     borderopacity="0.25"
     inkscape:showpageshadow="2"
     inkscape:pageopacity="0.0"
     inkscape:pagecheckerboard="0"
     inkscape:deskcolor="#d1d1d1"
     showgrid="false" />
  <path
     style="fill:currentColor"
     d="M 7.4582976,15.326927 6.56,15.293854 5.3882733,14.981825 4.2165469,14.669796 2.8647316,13.512692 1.5129164,12.355589 0.75958426,10.737795 0.00625211,9.12 0.00312605,8.0617024 0,7.0034048 0.35327322,5.6004298 0.70654643,4.1974547 1.8276561,2.8876901 2.9487657,1.5779256 4.2743827,0.88079891 5.6,0.18367222 h 2.08 2.08 l 1.325617,0.69712669 1.325617,0.69712669 1.103005,1.2886126 1.103004,1.2886125 0.371378,1.2395511 L 15.36,6.6342525 15.3569,7.8771264 15.3538,9.12 l -0.753332,1.617795 -0.753332,1.617794 -1.342269,1.148932 -1.34227,1.148932 L 9.7595504,15.006727 8.3565952,15.36 Z M 6.9702115,12.526693 7.0800534,11.133387 6.927503,10.980836 6.774953,10.828286 6.1198464,10.934143 5.4647398,11.04 6.1625546,12.48 6.8603693,13.92 Z M 8.6233085,13.584 8.926617,13.28 9.4276029,12.08 9.9285888,10.88 H 9.1242944 8.32 v 1.504 1.504 z M 4.7768054,13.44 H 5.0245069 L 4.6739526,12.32 4.3233981,11.2 H 3.4416992 2.56 v 0.291554 0.291554 L 3.544552,12.611554 4.5291043,13.44 Z m 5.7207356,0 H 10.65959 L 11.729795,12.623715 12.8,11.807429 V 11.503715 11.2 h -0.881699 -0.881699 l -0.350555,1.12 -0.350554,1.12 z M 2.3640684,10.110167 3.04,9.9287389 3.44,9.9243696 3.84,9.92 V 9.12 8.32 H 2.56 1.28 L 1.28437,8.56 1.28874,8.8 1.4884388,9.5457978 1.6881377,10.291596 Z M 13.322678,10.196422 13.685356,10.24 13.878308,9.52 14.071261,8.8 14.07563,8.56 14.08,8.32 H 12.8 11.52 v 0.7777437 0.7777437 l 0.72,0.1386776 0.72,0.138679 z M 6.08,9.6 H 7.04 V 8.96 8.32 H 6.08 5.12 V 8.96 9.6 Z m 3.2,0 h 0.96 V 8.96 8.32 H 9.28 8.32 V 8.96 9.6 Z M 2.5253094,7.04 H 3.84 V 6.28 5.52 L 2.8288889,5.3177779 1.8177778,5.1155555 1.7348996,5.1984336 1.6520215,5.281312 1.4313202,6.160656 1.2106188,7.04 Z M 6.08,7.04 H 7.04 V 6.4 5.76 H 6.08 5.12 V 6.4 7.04 Z m 3.2,0 h 0.96 V 6.4 5.76 H 9.28 8.32 V 6.4 7.04 Z m 3.554691,0 h 1.31469 L 13.92868,6.160656 13.707979,5.281312 13.6251,5.1984336 13.542222,5.1155555 12.531111,5.3177779 11.52,5.52 V 6.28 7.04 Z M 6.4,4.48 H 7.04 V 3.04 1.6 H 6.8882176 6.7364352 L 6.2482176,2.5441088 5.76,3.4882176 V 3.9841088 4.48 Z m 2.56,0 H 9.6 V 3.9841088 3.4882176 L 9.1117824,2.5441088 8.6235648,1.6 H 8.4717824 8.32 V 3.04 4.48 Z M 3.6205846,4.16 H 4.3233981 L 4.6739526,3.04 5.0245069,1.92 H 4.8624586 4.7004102 L 3.6242102,2.7408576 2.5480106,3.5617152 2.7328907,3.8608576 2.9177709,4.16 Z m 8.1188304,0 h 0.702814 L 12.627109,3.8608576 12.811989,3.5617152 11.73579,2.7408576 10.65959,1.92 h -0.162049 -0.162048 l 0.350554,1.12 0.350555,1.12 z"
     id="path466" />
</svg>
