<?xml version="1.0" encoding="UTF-8" standalone="no"?>
<!-- Created with Inkscape (http://www.inkscape.org/) -->

<svg
   version="1.1"
   id="svg46"
   width="35.19997"
   height="35.040001"
   viewBox="0 0 35.19997 35.040001"
   xmlns="http://www.w3.org/2000/svg"
   xmlns:svg="http://www.w3.org/2000/svg">
  <defs
     id="defs50" />
  <path
     style="fill:currentColor"
     d="M 17.6,35.040001 H 0 V 33.888363 32.736724 L 0.53410853,31.611173 1.0682171,30.485623 2.3004813,29.592976 3.5327454,28.700328 7.5737621,26.990164 11.614779,25.280001 12.527389,24.375385 13.44,23.47077 V 22.687671 21.904572 L 12.302277,20.250613 11.164554,18.596655 10.795908,17.218328 10.427261,15.84 H 10.168927 9.9105932 L 9.2764931,14.8 8.6423926,13.76 l -0.0012,-1.2 -0.0012,-1.2 h 0.3200001 0.32 L 9.2870275,8.7200003 9.2940547,6.0800002 9.8900515,4.7676424 10.486048,3.4552843 11.593936,2.3473976 12.701823,1.2395108 13.950912,0.61975541 15.2,0 h 2.4 2.400001 l 1.167891,0.58122476 1.167891,0.58122474 1.130884,1.1308839 1.130884,1.130884 0.573103,1.1678912 0.573103,1.1678916 0.119961,2.8 L 25.983679,11.36 h 0.288161 0.288161 l -0.0012,1.2 -0.0012,1.2 -0.634101,1.04 -0.6341,1.04 h -0.286715 -0.286714 l -0.352413,1.399558 -0.352413,1.399557 -1.125576,1.6726 -1.1256,1.672599 v 0.596708 0.596709 l 0.935772,1.065786 0.935773,1.065786 4.049646,1.718542 4.049647,1.718543 1.200474,0.869617 1.20047,0.869618 0.534109,1.12555 0.534109,1.125551 v 1.151639 1.151638 z"
     id="path165" />
</svg>
