<?xml version="1.0" encoding="UTF-8" standalone="no"?>
<!-- Created with Inkscape (http://www.inkscape.org/) -->

<svg
   version="1.1"
   id="svg431"
   width="15.5"
   height="15.5"
   viewBox="0 0 15.5 15.5"
   xml:space="preserve"
   sodipodi:docname="cardIdIcon.svg"
   inkscape:version="1.2.2 (b0a8486541, 2022-12-01)"
   xmlns:inkscape="http://www.inkscape.org/namespaces/inkscape"
   xmlns:sodipodi="http://sodipodi.sourceforge.net/DTD/sodipodi-0.dtd"
   xmlns="http://www.w3.org/2000/svg"
   xmlns:svg="http://www.w3.org/2000/svg"><sodipodi:namedview
     id="namedview807"
     pagecolor="#ffffff"
     bordercolor="#000000"
     borderopacity="0.25"
     inkscape:showpageshadow="2"
     inkscape:pageopacity="0.0"
     inkscape:pagecheckerboard="0"
     inkscape:deskcolor="#d1d1d1"
     showgrid="false"
     inkscape:zoom="56.193548"
     inkscape:cx="4.9827784"
     inkscape:cy="7.7677956"
     inkscape:window-width="1916"
     inkscape:window-height="1052"
     inkscape:window-x="0"
     inkscape:window-y="0"
     inkscape:window-maximized="1"
     inkscape:current-layer="svg431" /><defs
     id="defs435" /><style
     id="style372">#g522,#rect493,#path346,#rect274-5,#rect274-7,#rect274 { fill:currentColor; }
</style><g
     id="g732"
     transform="translate(0.00495361,2.2690368)"><path
       id="rect493"
       d="M 0.65910889 -0.019036777 C 0.29096503 -0.019036777 -0.004953613 0.27688186 -0.004953613 0.64502572 L -0.004953613 10.316901 C -0.004953613 10.685045 0.29096503 10.980963 0.65910889 10.980963 L 14.830984 10.980963 C 15.199128 10.980963 15.495046 10.685045 15.495046 10.316901 L 15.495046 0.64502572 C 15.495046 0.27688186 15.199128 -0.019036777 14.830984 -0.019036777 L 0.65910889 -0.019036777 z M 0.81926514 0.38135385 L 14.670828 0.38135385 C 14.959677 0.38135385 15.190359 0.61398884 15.190359 0.90283822 L 15.190359 10.059088 C 15.190359 10.347938 14.959677 10.580573 14.670828 10.580573 L 0.81926514 10.580573 C 0.53041575 10.580573 0.29973389 10.347938 0.29973389 10.059088 L 0.29973389 0.90283822 C 0.29973389 0.61398884 0.53041575 0.38135385 0.81926514 0.38135385 z " /><path
       d="M 4.8189596,8.725992 H 2.599387 L 2.4425314,8.1434751 2.2856759,7.5609579 2.3746805,6.9674322 2.4636853,6.3739062 2.8111881,5.8618323 3.1586908,5.3497584 3.0706706,4.7627971 2.9826503,4.1758357 3.1346058,3.6115162 3.2865613,3.0471969 3.5723564,2.683867 3.8581519,2.3205371 4.3946376,2.159802 4.9311232,1.9990671 5.4635894,2.2609933 5.9960561,2.5229195 6.275998,3.0089811 6.5559404,3.4950426 6.5688128,4.4726275 6.5816809,5.4502122 6.8811804,5.9335537 7.1806803,6.4168951 7.2664621,6.9889264 7.3522438,7.5609579 7.195388,8.1434751 7.0385335,8.725992 Z m 0,-0.2787898 H 6.8800558 L 6.9646671,8.2267091 7.0492781,8.006216 V 7.45556 6.9049041 L 6.8372049,6.3973415 6.6251317,5.8897793 6.4789226,5.7136079 6.3327134,5.5374366 5.9357581,5.9817065 5.5388029,6.4259763 H 4.8189596 4.0991162 L 3.7021611,5.9817065 3.3052061,5.5374366 3.1589968,5.7136079 3.0127876,5.8897793 2.8007144,6.3973415 2.5886412,6.9049041 V 7.45556 8.006216 l 0.084611,0.2204931 0.084611,0.2204931 z m 0,-2.230318 H 5.3145067 L 5.6061406,6.0126156 5.8977752,5.8083472 6.1250394,5.3294233 6.3523036,4.8504995 V 4.2722154 3.6939313 L 6.1459967,3.2949771 5.9396891,2.8960228 5.5696178,2.604925 5.1995471,2.3138272 H 4.8189596 4.4383721 L 4.0683012,2.604925 3.6982304,2.8960228 3.4919229,3.2949771 3.2856157,3.6939313 v 0.5782841 0.5782841 l 0.2272644,0.4789238 0.2272642,0.4789239 0.291634,0.2042684 0.291634,0.2042686 z"
       id="path346" /><g
       id="g522"
       transform="matrix(0.26200937,0,0,0.32994024,8.7863914,2.8356269)"><rect
         id="rect274-5"
         width="15.462626"
         height="1.1317053"
         x="0.26868677"
         y="11.280589"
         ry="1.7150155"
         rx="2.1596656" /><rect
         id="rect274-7"
         width="15.462626"
         height="1.1317053"
         x="0.26868677"
         y="7.1186743"
         ry="1.7150155"
         rx="2.1596656" /><rect
         id="rect274"
         width="15.462626"
         height="1.1317053"
         x="0.26868677"
         y="2.5501468"
         transform="translate(0,0.40661252)"
         ry="1.7150155"
         rx="2.1596656" /></g></g></svg>
