<?xml version="1.0" encoding="UTF-8" standalone="no"?>
<!-- Created with Inkscape (http://www.inkscape.org/) -->

<svg
   version="1.1"
   id="svg64"
   width="15.36"
   height="15.36"
   viewBox="0 0 15.36 15.36"
   sodipodi:docname="comments.png"
   xmlns:inkscape="http://www.inkscape.org/namespaces/inkscape"
   xmlns:sodipodi="http://sodipodi.sourceforge.net/DTD/sodipodi-0.dtd"
   xmlns="http://www.w3.org/2000/svg"
   xmlns:svg="http://www.w3.org/2000/svg">
  <defs
     id="defs68" />
  <sodipodi:namedview
     id="namedview66"
     pagecolor="#ffffff"
     bordercolor="#000000"
     borderopacity="0.25"
     inkscape:showpageshadow="2"
     inkscape:pageopacity="0.0"
     inkscape:pagecheckerboard="0"
     inkscape:deskcolor="#d1d1d1"
     showgrid="false" />
  <path
     style="fill:currentColor"
     d="M 6.24,14.4 C 5.3624947,13.484082 5.198112,13.44 2.6601308,13.44 H 0 V 6.72 0 h 7.68 7.68 v 6.72 6.72 H 12.699869 C 10.161888,13.44 9.9975053,13.48408 9.12,14.4 8.614144,14.928 7.966144,15.36 7.68,15.36 7.393856,15.36 6.745856,14.928 6.24,14.4 Z m 2.24,-1.6 c 0.4854294,-0.536394 0.9855894,-0.64 3.089596,-0.64 H 14.08 V 6.72 1.28 h -6.4 -6.4 v 5.44 5.44 h 2.5104038 c 2.1040068,0 2.6041668,0.103606 3.0895962,0.64 0.3185555,0.352 0.6785555,0.64 0.8,0.64 0.1214445,0 0.4814445,-0.288 0.8,-0.64 z M 3.2,9.6 c 0,-0.5925926 0.2133334,-0.64 2.88,-0.64 2.6666666,0 2.88,0.047407 2.88,0.64 0,0.592593 -0.2133334,0.64 -2.88,0.64 C 3.4133334,10.24 3.2,10.19259 3.2,9.6 Z m 0,-1.92 c 0,-0.6095238 0.2133334,-0.64 4.48,-0.64 4.266667,0 4.48,0.030477 4.48,0.64 0,0.6095238 -0.213333,0.64 -4.48,0.64 C 3.4133334,8.32 3.2,8.2895232 3.2,7.68 Z m 0,-1.92 c 0,-0.6095238 0.2133334,-0.64 4.48,-0.64 4.266667,0 4.48,0.030477 4.48,0.64 0,0.6095238 -0.213333,0.64 -4.48,0.64 C 3.4133334,6.4 3.2,6.3695232 3.2,5.76 Z m 0,-1.92 C 3.2,3.2304762 3.4133334,3.2 7.68,3.2 c 4.266667,0 4.48,0.030477 4.48,0.64 0,0.6095238 -0.213333,0.64 -4.48,0.64 C 3.4133334,4.48 3.2,4.4495232 3.2,3.84 Z"
     id="path180" />
</svg>
