<?xml version="1.0" encoding="UTF-8" standalone="no"?>
<!-- Created with Inkscape (http://www.inkscape.org/) -->

<svg
   version="1.1"
   id="svg331"
   width="15.347542"
   height="15.397174"
   viewBox="0 0 15.347542 15.397174"
   sodipodi:docname="logout.png"
   xmlns:inkscape="http://www.inkscape.org/namespaces/inkscape"
   xmlns:sodipodi="http://sodipodi.sourceforge.net/DTD/sodipodi-0.dtd"
   xmlns="http://www.w3.org/2000/svg"
   xmlns:svg="http://www.w3.org/2000/svg">
  <defs
     id="defs335" />
  <sodipodi:namedview
     id="namedview333"
     pagecolor="#ffffff"
     bordercolor="#000000"
     borderopacity="0.25"
     inkscape:showpageshadow="2"
     inkscape:pageopacity="0.0"
     inkscape:pagecheckerboard="0"
     inkscape:deskcolor="#d1d1d1"
     showgrid="false" />
  <path
     style="fill:currentColor"
     d="M 4.304798,14.784838 C 2.8501169,14.12399 1.0800844,12.257009 0.42751198,10.695183 -0.2079759,9.1742462 -0.12103572,5.8859399 0.59549477,4.3416321 1.3294525,2.7597639 2.9641879,1.1739605 4.5372645,0.51785012 7.2320754,-0.6061214 11.85617,0.21661894 12.089799,1.8616321 c 0.121121,0.8528288 -0.622564,0.948672 -1.862256,0.24 C 8.2929964,0.99574544 4.6680671,1.7673468 2.9004121,3.661283 0.50082312,6.2322983 1.3837377,11.215885 4.5846082,13.16768 c 1.2187085,0.743132 4.4433798,0.819679 5.6429348,0.133952 1.239692,-0.708672 1.983377,-0.612829 1.862256,0.24 -0.244134,1.718983 -5.0487738,2.486247 -7.785001,1.243206 z m 7.026674,-4.229209 c -0.117613,-0.190302 0.18883,-0.7663022 0.680984,-1.2800001 L 12.907281,8.3416321 H 9.0074117 c -3.6865357,0 -3.8998691,-0.03501 -3.8998691,-0.64 0,-0.6049904 0.2133334,-0.64 3.8998691,-0.64 H 12.907281 L 12.012456,6.1276353 c -0.912854,-0.9528141 -0.887243,-1.6260032 0.06186,-1.6260032 0.666204,0 3.273227,2.528401 3.273227,3.1745139 0,0.6706253 -2.572489,3.225486 -3.247741,3.225486 -0.304968,0 -0.650717,-0.155701 -0.76833,-0.346003 z"
     id="path346" />
</svg>
