<?xml version="1.0" encoding="UTF-8" standalone="no"?>
<!-- Created with Inkscape (http://www.inkscape.org/) -->

<svg
   version="1.1"
   id="svg373"
   width="16"
   height="16"
   viewBox="0 0 16 16"
   sodipodi:docname="organization.png"
   xmlns:inkscape="http://www.inkscape.org/namespaces/inkscape"
   xmlns:sodipodi="http://sodipodi.sourceforge.net/DTD/sodipodi-0.dtd"
   xmlns="http://www.w3.org/2000/svg"
   xmlns:svg="http://www.w3.org/2000/svg">
  <defs
     id="defs377" />
  <sodipodi:namedview
     id="namedview375"
     pagecolor="#ffffff"
     bordercolor="#000000"
     borderopacity="0.25"
     inkscape:showpageshadow="2"
     inkscape:pageopacity="0.0"
     inkscape:pagecheckerboard="0"
     inkscape:deskcolor="#d1d1d1"
     showgrid="false" />
  <path
     style="fill:currentColor"
     d="M 1.466636,14.612683 C 1.3317149,14.394376 1.5450488,13.968036 1.9555283,13.63565 L 2.683796,13.045934 1.7585647,12.939634 C 0.42350987,12.786248 0.5596981,11.874224 1.9486507,11.666667 L 3.0639681,11.5 1.531984,10.423536 C 0.68939283,9.8314807 0,9.202833 0,9.0265417 0,8.2794687 0.79261193,8.328089 2.0368483,9.1514857 L 3.3685503,10.032765 1.9923978,7.5253437 C 0.72576333,5.2174703 0.52291923,4.1187509 1.4185968,4.41731 c 0.1966266,0.065542 1.2703805,1.7542443 2.3861199,3.7526717 1.4552413,2.6065173 2.334814,3.8112703 3.11195,4.2624453 1.061673,0.616365 1.1049936,0.616365 2.1666666,0 0.777136,-0.451175 1.6567087,-1.655928 3.1119497,-4.2624453 1.11574,-1.9984274 2.189494,-3.6871294 2.38612,-3.7526717 0.895678,-0.2985591 0.692834,0.8001603 -0.573801,3.1080337 L 12.63145,10.032765 13.963152,9.1514857 C 15.207388,8.328089 16,8.2794687 16,9.0265417 16,9.202833 15.310607,9.8314807 14.468016,10.423536 L 12.936032,11.5 l 1.115317,0.166667 c 1.388953,0.207557 1.525141,1.119581 0.190086,1.272967 l -0.925231,0.1063 0.758565,0.620039 c 0.581047,0.474938 0.667339,0.712901 0.368742,1.016855 -0.300604,0.305998 -0.796487,0.165334 -2.166667,-0.614602 L 10.5,13.056807 9.2511617,13.702438 C 8.0153903,14.341312 7.9890177,14.34128 6.730661,13.699338 L 5.4589987,13.050585 3.8128327,14.01962 C 1.9537346,15.114001 1.8004073,15.15276 1.466636,14.612707 Z m 5.0870547,-3.94359 C 5.1454887,9.4326753 4.142671,7.1589913 3.626191,4.0315855 3.1635294,1.2300639 3.3693617,0.81483795 4.9479753,1.3651457 5.760422,1.6483661 6.260559,1.6396198 7.010267,1.3290807 c 0.783152,-0.3243923 1.196314,-0.3243923 1.979466,0 0.749708,0.3105391 1.249845,0.3192854 2.062292,0.036065 C 11.742855,1.124321 12.239333,1.1059996 12.447,1.3136671 12.894044,1.7607107 12.158315,6.008399 11.280342,8.049303 10.633314,9.5533597 8.716899,11.666667 8,11.666667 c -0.1705747,0 -0.821414,-0.448908 -1.4463093,-0.997574 z M 7.3333333,6.2059613 V 2.7452559 L 6,2.7268545 c -0.8412417,-0.01161 -1.3333333,0.132575 -1.3333333,0.3906725 0,1.579831 1.9175603,6.5491397 2.5271863,6.5491397 0.076714,0 0.1394803,-1.5573174 0.1394803,-3.4607054 z m 3.1429607,0.4607054 c 0.270068,-0.825 0.588353,-2.0533047 0.7073,-2.7295659 L 11.39986,2.707535 10.033263,2.726395 8.6666667,2.745256 8.6740767,6.2892948 8.6814867,9.8333334 9.3333757,9 C 9.6919123,8.5416667 10.206226,7.4916667 10.476294,6.6666667 Z"
     id="path384" />
</svg>
