<?xml version="1.0" encoding="UTF-8" standalone="no"?>
<!-- Created with Inkscape (http://www.inkscape.org/) -->

<svg
   version="1.1"
   id="svg309"
   width="16"
   height="16"
   viewBox="0 0 16 16"
   sodipodi:docname="personIcon.png"
   inkscape:version="0.0"
   xmlns:inkscape="http://www.inkscape.org/namespaces/inkscape"
   xmlns:sodipodi="http://sodipodi.sourceforge.net/DTD/sodipodi-0.dtd"
   xmlns="http://www.w3.org/2000/svg"
   xmlns:svg="http://www.w3.org/2000/svg">
  <defs
     id="defs313" />
  <sodipodi:namedview
     id="namedview311"
     pagecolor="#ffffff"
     bordercolor="#000000"
     borderopacity="0.25"
     inkscape:showpageshadow="2"
     inkscape:pageopacity="0.0"
     inkscape:pagecheckerboard="0"
     inkscape:deskcolor="#d1d1d1"
     showgrid="false"
     inkscape:zoom="28.914644"
     inkscape:cx="3.7351316"
     inkscape:cy="9.8738895"
     inkscape:window-width="1916"
     inkscape:window-height="1052"
     inkscape:window-x="0"
     inkscape:window-y="0"
     inkscape:window-maximized="1"
     inkscape:current-layer="svg309" />
  <path
     style="fill:currentColor"
     d="M 8.0000007,15.721287 H 2.9046689 L 2.5445856,14.38404 2.1845022,13.046792 2.3888247,11.684273 2.5931471,10.321753 3.3908873,9.1462176 4.1886273,7.970682 3.9865649,6.623232 3.7845021,5.2757821 4.1333367,3.9803098 4.4821713,2.6848377 5.1382532,1.8507644 5.7943354,1.016691 7.0259117,0.6477018 8.2574877,0.27871263 9.4798365,0.88 l 1.2223495,0.6012874 0.642645,1.1158207 0.642646,1.1158206 0.02955,2.2441795 0.02954,2.2441792 0.687542,1.1095763 0.687543,1.1095763 0.196923,1.313176 0.196923,1.313176 -0.360084,1.337248 -0.360081,1.337247 z m 0,-0.64 h 4.7315273 l 0.194237,-0.506172 0.194236,-0.506172 V 12.804837 11.540731 L 12.633158,10.375552 12.146315,9.2103735 11.810672,8.8059482 11.475029,8.4015229 10.563764,9.4214052 9.6524993,10.441287 H 8.0000007 6.3475021 L 5.4362375,9.4214052 4.5249729,8.4015229 4.1893297,8.8059482 3.8536865,9.2103735 3.3668435,10.375552 2.8800007,11.540731 v 1.264106 1.264106 l 0.1942364,0.506172 0.1942364,0.506172 z m 0,-5.1199996 H 9.1375969 L 9.8070826,9.4923613 10.476569,9.0234352 10.998285,7.924 11.520001,6.8245648 V 5.4970349 4.169505 L 11.046395,3.253651 10.572788,2.3377969 9.7232394,1.6695421 8.8736913,1.0012874 H 8.0000007 7.1263101 L 6.276762,1.6695421 5.4272138,2.3377969 4.9536071,3.253651 4.4800007,4.169505 V 5.4970349 6.8245648 L 5.0017169,7.924 5.523433,9.0234352 6.1929188,9.4923613 6.8624045,9.9612874 Z"
     id="path346" />
</svg>
