<?xml version="1.0" encoding="UTF-8" standalone="no"?>
<!-- Created with Inkscape (http://www.inkscape.org/) -->

<svg
   version="1.1"
   id="svg32"
   width="18"
   height="18"
   viewBox="0 0 18 18"
   sodipodi:docname="settings.png"
   inkscape:export-filename="settings.svg"
   inkscape:export-xdpi="96"
   inkscape:export-ydpi="96"
   xmlns:inkscape="http://www.inkscape.org/namespaces/inkscape"
   xmlns:sodipodi="http://sodipodi.sourceforge.net/DTD/sodipodi-0.dtd"
   xmlns="http://www.w3.org/2000/svg"
   xmlns:svg="http://www.w3.org/2000/svg">
  <defs
     id="defs36" />
  <sodipodi:namedview
     id="namedview34"
     pagecolor="#ffffff"
     bordercolor="#000000"
     borderopacity="0.25"
     inkscape:showpageshadow="2"
     inkscape:pageopacity="0.0"
     inkscape:pagecheckerboard="0"
     inkscape:deskcolor="#d1d1d1"
     showgrid="false" />
  <path
     style="fill:currentColor;stroke-width:1"
     d="M 7.4206081,16.964414 C 6.6874859,16.005841 6.5202322,15.964805 5.1715663,16.412603 c -1.27398,0.423 -1.5297056,0.389096 -2.0356076,-0.269876 -0.3182233,-0.41451 -0.5785877,-1.23038 -0.5785877,-1.813047 0,-0.801435 -0.3137524,-1.172193 -1.2885257,-1.522638 -1.45091228,-0.521625 -1.65742404,-1.486989 -0.61990803,-2.8978356 0.60515123,-0.822903 0.60515123,-0.9955107 0,-1.8184138 C -0.38857874,6.6799462 -0.18206698,5.7145821 1.2688453,5.192958 2.2436186,4.8425128 2.557371,4.4717545 2.557371,3.6703192 2.557371,3.0876519 2.8177354,2.271781 3.1359587,1.8572729 3.6418607,1.1983 3.8975863,1.1643964 5.1715663,1.5873962 6.5202322,2.0351942 6.6874859,1.994158 7.4206081,1.0355855 7.8562199,0.46601347 8.5669462,0 8.9999995,0 c 0.4330534,0 1.1437795,0.46601347 1.5793915,1.0355855 0.733122,0.9585725 0.900376,0.9996087 2.249042,0.5518107 1.27398,-0.4229998 1.529705,-0.3890962 2.035608,0.2698767 0.318224,0.4145081 0.578587,1.230379 0.578587,1.8130463 0,0.8014353 0.313752,1.1721936 1.288526,1.5226388 1.450912,0.5216241 1.657424,1.4869882 0.619909,2.8978346 -0.605153,0.8229031 -0.605153,0.9955108 0,1.8184138 1.037515,1.4108466 0.831003,2.3762106 -0.619909,2.8978356 -0.974774,0.350445 -1.288526,0.721203 -1.288526,1.522638 0,0.582667 -0.260363,1.398537 -0.578587,1.813047 -0.505903,0.658972 -0.761628,0.692876 -2.035608,0.269876 -1.348666,-0.447798 -1.51592,-0.406762 -2.249042,0.551811 C 10.143779,17.533986 9.4330529,18 8.9999995,18 8.5669462,18 7.8562199,17.533986 7.4206081,16.964414 Z m 2.3702632,-1.876141 c 0.4579047,-0.698367 0.8525527,-0.82229 2.0361047,-0.639357 1.324557,0.204728 1.46811,0.132285 1.46811,-0.740869 0,-1.078923 1.023407,-2.253502 1.963468,-2.253502 0.78273,0 0.771169,-0.208803 -0.08007,-1.446211 -0.638542,-0.9282116 -0.638542,-1.0884573 0,-2.0166685 0.851247,-1.2374079 0.862808,-1.4462113 0.08007,-1.4462113 -0.940061,0 -1.963468,-1.1745793 -1.963468,-2.2535009 0,-0.8702787 -0.145697,-0.9452674 -1.446066,-0.7442778 C 10.669139,3.730042 10.273829,3.595597 9.7014768,2.8172942 L 8.9999995,1.8634038 8.2985222,2.8172942 C 7.7261703,3.5955966 7.3308601,3.730042 6.1509793,3.5476755 4.8506099,3.3466859 4.7049138,3.4216746 4.7049138,4.2919533 c 0,1.0789216 -1.0234071,2.2535009 -1.9634679,2.2535009 -0.7827311,0 -0.7711696,0.2088034 0.080077,1.4462113 0.6385416,0.9282112 0.6385416,1.0884569 0,2.0166685 -0.8512463,1.237408 -0.8628078,1.446211 -0.080077,1.446211 0.9400608,0 1.9634679,1.174579 1.9634679,2.253502 0,0.873154 0.1435525,0.945597 1.4681089,0.740869 1.1835525,-0.182933 1.5782004,-0.05901 2.0361051,0.639357 0.3123984,0.476449 0.6682903,0.866272 0.7908717,0.866272 0.1225823,0 0.4784734,-0.389823 0.7908718,-0.866272 z M 6.6181791,11.268595 C 4.4877342,9.2394249 5.9973588,5.7272724 8.9999995,5.7272724 c 1.7657515,0 3.4360685,1.5909144 3.4360685,3.2727271 0,1.6818125 -1.670317,3.2727275 -3.4360685,3.2727275 -0.8368429,0 -1.7172684,-0.371172 -2.3818204,-1.004132 z M 10.271401,10.042379 C 10.939114,9.2760803 10.705892,8.1864981 9.7516395,7.6141216 8.2634367,6.7214724 6.5876273,8.7329471 7.728598,10.042379 c 0.6634231,0.761376 1.8793799,0.761376 2.542803,0 z"
     id="path149" />
</svg>
